<svg xmlns="http://www.w3.org/2000/svg" xmlns:xlink="http://www.w3.org/1999/xlink" width="500" zoomAndPan="magnify" viewBox="0 0 375 374.999991" height="500" preserveAspectRatio="xMidYMid meet" version="1.0"><defs><clipPath id="id1"><path d="M 66 141 L 152 141 L 152 227 L 66 227 Z M 66 141 " clip-rule="nonzero"/></clipPath><clipPath id="id2"><path d="M 49.464844 183.773438 L 186.820312 46.417969 L 323.644531 183.242188 L 186.289062 320.597656 Z M 49.464844 183.773438 " clip-rule="nonzero"/></clipPath><clipPath id="id3"><path d="M 49.117188 183.429688 L 186.472656 46.074219 L 323.828125 183.429688 L 186.472656 320.785156 Z M 49.117188 183.429688 " clip-rule="nonzero"/></clipPath><clipPath id="id4"><path d="M 144 218 L 229 218 L 229 304 L 144 304 Z M 144 218 " clip-rule="nonzero"/></clipPath><clipPath id="id5"><path d="M 49.464844 183.773438 L 186.820312 46.417969 L 323.644531 183.242188 L 186.289062 320.597656 Z M 49.464844 183.773438 " clip-rule="nonzero"/></clipPath><clipPath id="id6"><path d="M 49.117188 183.429688 L 186.472656 46.074219 L 323.828125 183.429688 L 186.472656 320.785156 Z M 49.117188 183.429688 " clip-rule="nonzero"/></clipPath><clipPath id="id7"><path d="M 144 63 L 229 63 L 229 149 L 144 149 Z M 144 63 " clip-rule="nonzero"/></clipPath><clipPath id="id8"><path d="M 49.464844 183.773438 L 186.820312 46.417969 L 323.644531 183.242188 L 186.289062 320.597656 Z M 49.464844 183.773438 " clip-rule="nonzero"/></clipPath><clipPath id="id9"><path d="M 49.117188 183.429688 L 186.472656 46.074219 L 323.828125 183.429688 L 186.472656 320.785156 Z M 49.117188 183.429688 " clip-rule="nonzero"/></clipPath><clipPath id="id10"><path d="M 221 140 L 307 140 L 307 226 L 221 226 Z M 221 140 " clip-rule="nonzero"/></clipPath><clipPath id="id11"><path d="M 49.464844 183.773438 L 186.820312 46.417969 L 323.644531 183.242188 L 186.289062 320.597656 Z M 49.464844 183.773438 " clip-rule="nonzero"/></clipPath><clipPath id="id12"><path d="M 49.117188 183.429688 L 186.472656 46.074219 L 323.828125 183.429688 L 186.472656 320.785156 Z M 49.117188 183.429688 " clip-rule="nonzero"/></clipPath></defs><rect x="-37.5" width="450" fill="#ffffff" y="-37.499999" height="449.999989" fill-opacity="1"/><rect x="-37.5" width="450" fill="#ffffff" y="-37.499999" height="449.999989" fill-opacity="1"/><rect x="-37.5" width="450" fill="#ff2768" y="-37.499999" height="449.999989" fill-opacity="1"/><rect x="-37.5" width="450" fill="#ffc4d4" y="-37.499999" height="449.999989" fill-opacity="1"/><g clip-path="url(#id1)"><g clip-path="url(#id2)"><g clip-path="url(#id3)"><path fill="#ff2768" d="M 139.324219 153.609375 C 140.304688 154.59375 141.238281 155.621094 142.121094 156.695312 C 143 157.769531 143.828125 158.886719 144.601562 160.042969 C 145.371094 161.195312 146.085938 162.386719 146.742188 163.613281 C 147.394531 164.839844 147.988281 166.09375 148.519531 167.378906 C 149.054688 168.660156 149.519531 169.96875 149.925781 171.296875 C 150.328125 172.628906 150.664062 173.976562 150.9375 175.335938 C 151.207031 176.699219 151.410156 178.074219 151.546875 179.457031 C 151.683594 180.839844 151.75 182.226562 151.75 183.617188 C 151.75 185.007812 151.683594 186.394531 151.546875 187.777344 C 151.410156 189.160156 151.207031 190.53125 150.9375 191.894531 C 150.664062 193.257812 150.328125 194.605469 149.925781 195.933594 C 149.519531 197.265625 149.054688 198.570312 148.519531 199.855469 C 147.988281 201.140625 147.394531 202.394531 146.742188 203.621094 C 146.085938 204.84375 145.371094 206.035156 144.601562 207.191406 C 143.828125 208.347656 143 209.460938 142.121094 210.535156 C 141.238281 211.609375 140.304688 212.640625 139.324219 213.621094 C 138.339844 214.605469 137.3125 215.535156 136.238281 216.417969 C 135.164062 217.300781 134.046875 218.128906 132.890625 218.898438 C 131.738281 219.671875 130.546875 220.386719 129.320312 221.039062 C 128.09375 221.695312 126.839844 222.289062 125.554688 222.820312 C 124.273438 223.351562 122.964844 223.820312 121.636719 224.222656 C 120.304688 224.628906 118.957031 224.964844 117.59375 225.234375 C 116.230469 225.507812 114.859375 225.710938 113.476562 225.847656 C 112.09375 225.984375 110.707031 226.050781 109.316406 226.050781 C 107.925781 226.050781 106.539062 225.984375 105.15625 225.847656 C 103.773438 225.710938 102.402344 225.507812 101.039062 225.234375 C 99.675781 224.964844 98.328125 224.628906 97 224.222656 C 95.667969 223.820312 94.363281 223.351562 93.078125 222.820312 C 91.792969 222.289062 90.539062 221.695312 89.3125 221.039062 C 88.085938 220.386719 86.898438 219.671875 85.742188 218.898438 C 84.585938 218.128906 83.472656 217.300781 82.398438 216.417969 C 81.324219 215.535156 80.292969 214.605469 79.3125 213.621094 C 78.328125 212.640625 77.394531 211.609375 76.515625 210.535156 C 75.632812 209.460938 74.804688 208.347656 74.035156 207.191406 C 73.261719 206.035156 72.546875 204.84375 71.894531 203.621094 C 71.238281 202.394531 70.644531 201.140625 70.113281 199.855469 C 69.582031 198.570312 69.113281 197.265625 68.710938 195.933594 C 68.304688 194.605469 67.96875 193.257812 67.699219 191.894531 C 67.425781 190.53125 67.222656 189.160156 67.085938 187.777344 C 66.949219 186.394531 66.882812 185.007812 66.882812 183.617188 C 66.882812 182.226562 66.949219 180.839844 67.085938 179.457031 C 67.222656 178.074219 67.425781 176.699219 67.699219 175.335938 C 67.96875 173.976562 68.304688 172.628906 68.710938 171.296875 C 69.113281 169.96875 69.582031 168.660156 70.113281 167.378906 C 70.644531 166.09375 71.238281 164.839844 71.894531 163.613281 C 72.546875 162.386719 73.261719 161.195312 74.035156 160.042969 C 74.804688 158.886719 75.632812 157.769531 76.515625 156.695312 C 77.394531 155.621094 78.328125 154.59375 79.3125 153.609375 C 80.292969 152.628906 81.324219 151.695312 82.398438 150.8125 C 83.472656 149.933594 84.585938 149.105469 85.742188 148.332031 C 86.898438 147.5625 88.085938 146.847656 89.3125 146.191406 C 90.539062 145.539062 91.792969 144.945312 93.078125 144.410156 C 94.363281 143.878906 95.667969 143.414062 97 143.007812 C 98.328125 142.605469 99.675781 142.269531 101.039062 141.996094 C 102.402344 141.726562 103.773438 141.523438 105.15625 141.386719 C 106.539062 141.25 107.925781 141.183594 109.316406 141.183594 C 110.707031 141.183594 112.09375 141.25 113.476562 141.386719 C 114.859375 141.523438 116.230469 141.726562 117.59375 141.996094 C 118.957031 142.269531 120.304688 142.605469 121.636719 143.007812 C 122.964844 143.414062 124.273438 143.878906 125.554688 144.410156 C 126.839844 144.945312 128.09375 145.539062 129.320312 146.191406 C 130.546875 146.847656 131.738281 147.5625 132.890625 148.332031 C 134.046875 149.105469 135.164062 149.933594 136.238281 150.8125 C 137.3125 151.695312 138.339844 152.628906 139.324219 153.609375 Z M 139.324219 153.609375 " fill-opacity="1" fill-rule="nonzero"/></g></g></g><g clip-path="url(#id4)"><g clip-path="url(#id5)"><g clip-path="url(#id6)"><path fill="#05e0e9" d="M 216.480469 230.769531 C 217.464844 231.75 218.394531 232.78125 219.277344 233.855469 C 220.160156 234.929688 220.984375 236.042969 221.757812 237.199219 C 222.53125 238.355469 223.242188 239.542969 223.898438 240.769531 C 224.554688 241.996094 225.148438 243.25 225.679688 244.535156 C 226.210938 245.820312 226.679688 247.125 227.082031 248.457031 C 227.484375 249.785156 227.824219 251.132812 228.09375 252.496094 C 228.363281 253.859375 228.570312 255.230469 228.703125 256.613281 C 228.839844 257.996094 228.910156 259.382812 228.910156 260.773438 C 228.910156 262.164062 228.839844 263.550781 228.703125 264.933594 C 228.570312 266.316406 228.363281 267.691406 228.09375 269.050781 C 227.824219 270.414062 227.484375 271.761719 227.082031 273.09375 C 226.679688 274.421875 226.210938 275.730469 225.679688 277.011719 C 225.148438 278.296875 224.554688 279.550781 223.898438 280.777344 C 223.242188 282.003906 222.53125 283.195312 221.757812 284.347656 C 220.984375 285.503906 220.160156 286.621094 219.277344 287.695312 C 218.394531 288.769531 217.464844 289.796875 216.480469 290.78125 C 215.496094 291.761719 214.46875 292.695312 213.394531 293.578125 C 212.320312 294.457031 211.207031 295.285156 210.050781 296.058594 C 208.894531 296.828125 207.703125 297.542969 206.476562 298.199219 C 205.253906 298.851562 203.996094 299.445312 202.714844 299.976562 C 201.429688 300.511719 200.121094 300.976562 198.792969 301.382812 C 197.460938 301.785156 196.117188 302.121094 194.753906 302.394531 C 193.390625 302.664062 192.015625 302.867188 190.632812 303.003906 C 189.25 303.140625 187.863281 303.207031 186.472656 303.207031 C 185.085938 303.207031 183.699219 303.140625 182.316406 303.003906 C 180.933594 302.867188 179.558594 302.664062 178.195312 302.394531 C 176.832031 302.121094 175.488281 301.785156 174.15625 301.382812 C 172.828125 300.976562 171.519531 300.511719 170.234375 299.976562 C 168.953125 299.445312 167.695312 298.851562 166.472656 298.199219 C 165.246094 297.542969 164.054688 296.828125 162.898438 296.058594 C 161.742188 295.285156 160.628906 294.457031 159.554688 293.578125 C 158.480469 292.695312 157.453125 291.761719 156.46875 290.78125 C 155.484375 289.796875 154.554688 288.769531 153.671875 287.695312 C 152.789062 286.621094 151.964844 285.503906 151.191406 284.347656 C 150.417969 283.195312 149.707031 282.003906 149.050781 280.777344 C 148.394531 279.550781 147.800781 278.296875 147.269531 277.011719 C 146.738281 275.730469 146.269531 274.421875 145.867188 273.09375 C 145.464844 271.761719 145.125 270.414062 144.855469 269.050781 C 144.585938 267.691406 144.378906 266.316406 144.246094 264.933594 C 144.109375 263.550781 144.039062 262.164062 144.039062 260.773438 C 144.039062 259.382812 144.109375 257.996094 144.246094 256.613281 C 144.378906 255.230469 144.585938 253.859375 144.855469 252.496094 C 145.125 251.132812 145.464844 249.785156 145.867188 248.457031 C 146.269531 247.125 146.738281 245.820312 147.269531 244.535156 C 147.800781 243.25 148.394531 241.996094 149.050781 240.769531 C 149.707031 239.542969 150.417969 238.355469 151.191406 237.199219 C 151.964844 236.042969 152.789062 234.929688 153.671875 233.855469 C 154.554688 232.78125 155.484375 231.75 156.46875 230.769531 C 157.453125 229.785156 158.480469 228.851562 159.554688 227.972656 C 160.628906 227.089844 161.742188 226.261719 162.898438 225.492188 C 164.054688 224.71875 165.246094 224.003906 166.472656 223.351562 C 167.695312 222.695312 168.953125 222.101562 170.234375 221.570312 C 171.519531 221.039062 172.828125 220.570312 174.15625 220.167969 C 175.488281 219.761719 176.832031 219.425781 178.195312 219.15625 C 179.558594 218.882812 180.933594 218.679688 182.316406 218.542969 C 183.699219 218.40625 185.085938 218.339844 186.472656 218.339844 C 187.863281 218.339844 189.25 218.40625 190.632812 218.542969 C 192.015625 218.679688 193.390625 218.882812 194.753906 219.15625 C 196.117188 219.425781 197.460938 219.761719 198.792969 220.167969 C 200.121094 220.570312 201.429688 221.039062 202.714844 221.570312 C 203.996094 222.101562 205.253906 222.695312 206.476562 223.351562 C 207.703125 224.003906 208.894531 224.71875 210.050781 225.492188 C 211.207031 226.261719 212.320312 227.089844 213.394531 227.972656 C 214.46875 228.851562 215.496094 229.785156 216.480469 230.769531 Z M 216.480469 230.769531 " fill-opacity="1" fill-rule="nonzero"/></g></g></g><g clip-path="url(#id7)"><g clip-path="url(#id8)"><g clip-path="url(#id9)"><path fill="#4e1a3d" d="M 216.480469 76.082031 C 217.464844 77.0625 218.394531 78.089844 219.277344 79.164062 C 220.160156 80.238281 220.984375 81.355469 221.757812 82.511719 C 222.53125 83.667969 223.242188 84.855469 223.898438 86.082031 C 224.554688 87.308594 225.148438 88.5625 225.679688 89.847656 C 226.210938 91.132812 226.679688 92.4375 227.082031 93.769531 C 227.484375 95.097656 227.824219 96.445312 228.09375 97.808594 C 228.363281 99.171875 228.570312 100.542969 228.703125 101.925781 C 228.839844 103.308594 228.910156 104.695312 228.910156 106.085938 C 228.910156 107.476562 228.839844 108.863281 228.703125 110.246094 C 228.570312 111.628906 228.363281 113 228.09375 114.363281 C 227.824219 115.726562 227.484375 117.074219 227.082031 118.402344 C 226.679688 119.734375 226.210938 121.039062 225.679688 122.324219 C 225.148438 123.609375 224.554688 124.863281 223.898438 126.089844 C 223.242188 127.316406 222.53125 128.503906 221.757812 129.660156 C 220.984375 130.816406 220.160156 131.933594 219.277344 133.007812 C 218.394531 134.082031 217.464844 135.109375 216.480469 136.089844 C 215.496094 137.074219 214.46875 138.007812 213.394531 138.886719 C 212.320312 139.769531 211.207031 140.597656 210.050781 141.367188 C 208.894531 142.140625 207.703125 142.855469 206.476562 143.511719 C 205.253906 144.164062 203.996094 144.757812 202.714844 145.289062 C 201.429688 145.820312 200.121094 146.289062 198.792969 146.691406 C 197.460938 147.097656 196.117188 147.433594 194.753906 147.707031 C 193.390625 147.976562 192.015625 148.179688 190.632812 148.316406 C 189.25 148.453125 187.863281 148.519531 186.472656 148.519531 C 185.085938 148.519531 183.699219 148.453125 182.316406 148.316406 C 180.933594 148.179688 179.558594 147.976562 178.195312 147.707031 C 176.832031 147.433594 175.488281 147.097656 174.15625 146.691406 C 172.828125 146.289062 171.519531 145.820312 170.234375 145.289062 C 168.953125 144.757812 167.695312 144.164062 166.472656 143.511719 C 165.246094 142.855469 164.054688 142.140625 162.898438 141.367188 C 161.742188 140.597656 160.628906 139.769531 159.554688 138.886719 C 158.480469 138.007812 157.453125 137.074219 156.46875 136.089844 C 155.484375 135.109375 154.554688 134.082031 153.671875 133.007812 C 152.789062 131.933594 151.964844 130.816406 151.191406 129.660156 C 150.417969 128.503906 149.707031 127.316406 149.050781 126.089844 C 148.394531 124.863281 147.800781 123.609375 147.269531 122.324219 C 146.738281 121.039062 146.269531 119.734375 145.867188 118.402344 C 145.464844 117.074219 145.125 115.726562 144.855469 114.363281 C 144.585938 113 144.378906 111.628906 144.246094 110.246094 C 144.109375 108.863281 144.039062 107.476562 144.039062 106.085938 C 144.039062 104.695312 144.109375 103.308594 144.246094 101.925781 C 144.378906 100.542969 144.585938 99.171875 144.855469 97.808594 C 145.125 96.445312 145.464844 95.097656 145.867188 93.769531 C 146.269531 92.4375 146.738281 91.132812 147.269531 89.847656 C 147.800781 88.5625 148.394531 87.308594 149.050781 86.082031 C 149.707031 84.855469 150.417969 83.667969 151.191406 82.511719 C 151.964844 81.355469 152.789062 80.238281 153.671875 79.164062 C 154.554688 78.089844 155.484375 77.0625 156.46875 76.082031 C 157.453125 75.097656 158.480469 74.164062 159.554688 73.285156 C 160.628906 72.402344 161.742188 71.574219 162.898438 70.804688 C 164.054688 70.03125 165.246094 69.316406 166.472656 68.660156 C 167.695312 68.007812 168.953125 67.414062 170.234375 66.882812 C 171.519531 66.351562 172.828125 65.882812 174.15625 65.480469 C 175.488281 65.074219 176.832031 64.738281 178.195312 64.46875 C 179.558594 64.195312 180.933594 63.992188 182.316406 63.855469 C 183.699219 63.71875 185.085938 63.652344 186.472656 63.652344 C 187.863281 63.652344 189.25 63.71875 190.632812 63.855469 C 192.015625 63.992188 193.390625 64.195312 194.753906 64.46875 C 196.117188 64.738281 197.460938 65.074219 198.792969 65.480469 C 200.121094 65.882812 201.429688 66.351562 202.714844 66.882812 C 203.996094 67.414062 205.253906 68.007812 206.476562 68.660156 C 207.703125 69.316406 208.894531 70.03125 210.050781 70.804688 C 211.207031 71.574219 212.320312 72.402344 213.394531 73.285156 C 214.46875 74.164062 215.496094 75.097656 216.480469 76.082031 Z M 216.480469 76.082031 " fill-opacity="1" fill-rule="nonzero"/></g></g></g><g clip-path="url(#id10)"><g clip-path="url(#id11)"><g clip-path="url(#id12)"><path fill="#ff2768" d="M 293.824219 153.425781 C 294.808594 154.40625 295.738281 155.433594 296.621094 156.511719 C 297.503906 157.585938 298.328125 158.699219 299.101562 159.855469 C 299.875 161.011719 300.585938 162.199219 301.242188 163.425781 C 301.898438 164.652344 302.492188 165.90625 303.023438 167.191406 C 303.554688 168.476562 304.023438 169.78125 304.425781 171.113281 C 304.828125 172.441406 305.167969 173.789062 305.4375 175.152344 C 305.707031 176.515625 305.914062 177.886719 306.046875 179.269531 C 306.183594 180.652344 306.253906 182.039062 306.253906 183.429688 C 306.253906 184.820312 306.183594 186.207031 306.046875 187.589844 C 305.914062 188.972656 305.707031 190.34375 305.4375 191.707031 C 305.167969 193.070312 304.828125 194.417969 304.425781 195.75 C 304.023438 197.078125 303.554688 198.386719 303.023438 199.667969 C 302.492188 200.953125 301.898438 202.207031 301.242188 203.433594 C 300.585938 204.660156 299.875 205.851562 299.101562 207.003906 C 298.328125 208.160156 297.503906 209.277344 296.621094 210.351562 C 295.738281 211.425781 294.808594 212.453125 293.824219 213.4375 C 292.839844 214.417969 291.8125 215.351562 290.738281 216.230469 C 289.664062 217.113281 288.550781 217.941406 287.394531 218.714844 C 286.238281 219.484375 285.046875 220.199219 283.820312 220.855469 C 282.597656 221.507812 281.339844 222.101562 280.058594 222.632812 C 278.773438 223.167969 277.464844 223.632812 276.136719 224.039062 C 274.804688 224.441406 273.460938 224.777344 272.097656 225.050781 C 270.734375 225.320312 269.359375 225.523438 267.976562 225.660156 C 266.59375 225.796875 265.207031 225.863281 263.820312 225.863281 C 262.429688 225.863281 261.042969 225.796875 259.660156 225.660156 C 258.277344 225.523438 256.902344 225.320312 255.539062 225.050781 C 254.175781 224.777344 252.832031 224.441406 251.5 224.039062 C 250.171875 223.632812 248.863281 223.167969 247.578125 222.632812 C 246.296875 222.101562 245.039062 221.507812 243.816406 220.855469 C 242.589844 220.199219 241.398438 219.484375 240.242188 218.714844 C 239.085938 217.941406 237.972656 217.113281 236.898438 216.230469 C 235.824219 215.351562 234.796875 214.417969 233.8125 213.4375 C 232.828125 212.453125 231.898438 211.425781 231.015625 210.351562 C 230.132812 209.277344 229.308594 208.160156 228.535156 207.003906 C 227.761719 205.851562 227.050781 204.660156 226.394531 203.433594 C 225.738281 202.207031 225.144531 200.953125 224.613281 199.667969 C 224.082031 198.386719 223.613281 197.078125 223.210938 195.75 C 222.808594 194.417969 222.46875 193.070312 222.199219 191.707031 C 221.929688 190.34375 221.722656 188.972656 221.589844 187.589844 C 221.453125 186.207031 221.382812 184.820312 221.382812 183.429688 C 221.382812 182.039062 221.453125 180.652344 221.589844 179.269531 C 221.722656 177.886719 221.929688 176.515625 222.199219 175.152344 C 222.46875 173.789062 222.808594 172.441406 223.210938 171.113281 C 223.613281 169.78125 224.082031 168.476562 224.613281 167.191406 C 225.144531 165.90625 225.738281 164.652344 226.394531 163.425781 C 227.050781 162.199219 227.761719 161.011719 228.535156 159.855469 C 229.308594 158.699219 230.132812 157.585938 231.015625 156.511719 C 231.898438 155.433594 232.828125 154.40625 233.8125 153.425781 C 234.796875 152.441406 235.824219 151.507812 236.898438 150.628906 C 237.972656 149.746094 239.085938 148.917969 240.242188 148.148438 C 241.398438 147.375 242.589844 146.660156 243.816406 146.007812 C 245.039062 145.351562 246.296875 144.757812 247.578125 144.226562 C 248.863281 143.695312 250.171875 143.226562 251.5 142.824219 C 252.832031 142.417969 254.175781 142.082031 255.539062 141.8125 C 256.902344 141.539062 258.277344 141.335938 259.660156 141.199219 C 261.042969 141.0625 262.429688 140.996094 263.820312 140.996094 C 265.207031 140.996094 266.59375 141.0625 267.976562 141.199219 C 269.359375 141.335938 270.734375 141.539062 272.097656 141.8125 C 273.460938 142.082031 274.804688 142.417969 276.136719 142.824219 C 277.464844 143.226562 278.773438 143.695312 280.058594 144.226562 C 281.339844 144.757812 282.597656 145.351562 283.820312 146.007812 C 285.046875 146.660156 286.238281 147.375 287.394531 148.148438 C 288.550781 148.917969 289.664062 149.746094 290.738281 150.628906 C 291.8125 151.507812 292.839844 152.441406 293.824219 153.425781 Z M 293.824219 153.425781 " fill-opacity="1" fill-rule="nonzero"/></g></g></g></svg>